<mxfile host="Electron" modified="2023-08-17T01:15:01.965Z" agent="Mozilla/5.0 (X11; Linux x86_64) AppleWebKit/537.36 (KHTML, like Gecko) draw.io/21.6.8 Chrome/114.0.5735.289 Electron/25.5.0 Safari/537.36" etag="M2m4qLqFR0CMbRwP79Ql" version="21.6.8" type="device">
  <diagram name="Page-1" id="4r03dHbfyTE6OyfJmPza">
    <mxGraphModel dx="2409" dy="1663" grid="0" gridSize="10" guides="1" tooltips="1" connect="1" arrows="1" fold="1" page="0" pageScale="1" pageWidth="850" pageHeight="1100" math="0" shadow="0">
      <root>
        <mxCell id="0" />
        <mxCell id="1" parent="0" />
        <mxCell id="ze89FVDKxorHZtrna_4w-1" value="" style="whiteSpace=wrap;html=1;aspect=fixed;fontSize=16;rotation=-90;" parent="1" vertex="1">
          <mxGeometry x="-307" y="-156.75" width="1252" height="1252" as="geometry" />
        </mxCell>
        <mxCell id="ze89FVDKxorHZtrna_4w-5" value="Administrador" style="shape=umlActor;verticalLabelPosition=bottom;verticalAlign=top;html=1;outlineConnect=0;fontSize=16;" parent="1" vertex="1">
          <mxGeometry x="1065" y="379.5" width="102" height="179.5" as="geometry" />
        </mxCell>
        <mxCell id="ze89FVDKxorHZtrna_4w-45" value="Recuperar contraseña" style="ellipse;whiteSpace=wrap;html=1;fontSize=16;" parent="1" vertex="1">
          <mxGeometry x="237" y="835" width="206" height="135" as="geometry" />
        </mxCell>
        <mxCell id="ze89FVDKxorHZtrna_4w-48" value="Iniciar sesión" style="ellipse;whiteSpace=wrap;html=1;fontSize=16;" parent="1" vertex="1">
          <mxGeometry x="606" y="193" width="206" height="135" as="geometry" />
        </mxCell>
        <mxCell id="ze89FVDKxorHZtrna_4w-49" value="Registrarse" style="ellipse;whiteSpace=wrap;html=1;fontSize=16;" parent="1" vertex="1">
          <mxGeometry x="641" y="835" width="206" height="135" as="geometry" />
        </mxCell>
        <mxCell id="ze89FVDKxorHZtrna_4w-50" value="Invalidar solicitud" style="ellipse;whiteSpace=wrap;html=1;fontSize=16;" parent="1" vertex="1">
          <mxGeometry x="237" y="-75" width="206" height="135" as="geometry" />
        </mxCell>
        <mxCell id="ze89FVDKxorHZtrna_4w-51" value="Validar solicitud" style="ellipse;whiteSpace=wrap;html=1;fontSize=16;" parent="1" vertex="1">
          <mxGeometry x="237" y="474" width="206" height="135" as="geometry" />
        </mxCell>
        <mxCell id="ze89FVDKxorHZtrna_4w-52" value="Recibir solicitud" style="ellipse;whiteSpace=wrap;html=1;fontSize=16;" parent="1" vertex="1">
          <mxGeometry x="237" y="193" width="206" height="135" as="geometry" />
        </mxCell>
        <mxCell id="ze89FVDKxorHZtrna_4w-53" value="Notificar usuario" style="ellipse;whiteSpace=wrap;html=1;fontSize=16;" parent="1" vertex="1">
          <mxGeometry x="-182" y="663" width="206" height="135" as="geometry" />
        </mxCell>
        <mxCell id="ze89FVDKxorHZtrna_4w-54" value="Responder solicitud" style="ellipse;whiteSpace=wrap;html=1;fontSize=16;" parent="1" vertex="1">
          <mxGeometry x="-182" y="190" width="206" height="135" as="geometry" />
        </mxCell>
      </root>
    </mxGraphModel>
  </diagram>
</mxfile>
